<?xml version="1.0" encoding="UTF-8"?>
<svg xmlns="http://www.w3.org/2000/svg" role="img" aria-labelledby="title desc" viewBox="0 0 600 789">
  <title id="title">Mobile public project ecosystem</title>
  <desc id="desc">Operational systems, developer tools, and ten maintained AI agent Skills.</desc>
  <style>
    text { font-family:-apple-system,BlinkMacSystemFont,"Segoe UI",Inter,Arial,sans-serif; fill:#f0f6fc; }
    .muted { fill:#9da7b3; }
    .accent { fill:#f0443e; }
    .surface { fill:#161b22; stroke:#30363d; }
    .surface2 { fill:#21262d; stroke:#30363d; }
    .line { stroke:#30363d; }
    .accent-line { stroke:#f0443e; }
  </style>
  <rect width="600" height="789" rx="24" fill="#0d1117" stroke="#30363d"/>
  <text x="24" y="45" font-size="26" font-weight="800">Three connected portfolio layers</text>
  <text x="24" y="72" font-size="15" class="muted">Products, tools, and reusable agent capabilities.</text>
  <rect x="24" y="94" width="552" height="129" rx="16" class="surface"/>
    <rect x="24" y="94" width="552" height="6" rx="3" fill="#f0443e"/>
    <text x="46" y="131" font-size="18" font-weight="800">OPERATIONAL SYSTEMS</text>
    <circle cx="49" cy="152" r="5" fill="#f0443e"/>
    <text x="66" y="158" font-size="17">OH MY PM</text>
    <circle cx="49" cy="183" r="5" fill="#f0443e"/>
    <text x="66" y="189" font-size="17">AirBridge</text>
  <rect x="24" y="241" width="552" height="129" rx="16" class="surface"/>
    <rect x="24" y="241" width="552" height="6" rx="3" fill="#f0443e"/>
    <text x="46" y="278" font-size="18" font-weight="800">DEVELOPER TOOLS</text>
    <circle cx="49" cy="299" r="5" fill="#f0443e"/>
    <text x="66" y="305" font-size="17">Daryaft</text>
    <circle cx="49" cy="330" r="5" fill="#f0443e"/>
    <text x="66" y="336" font-size="17">BranchDojo</text>
  <rect x="24" y="388" width="552" height="377" rx="16" class="surface"/>
    <rect x="24" y="388" width="552" height="6" rx="3" fill="#f0443e"/>
    <text x="46" y="425" font-size="18" font-weight="800">AI AGENT SKILLS</text>
    <circle cx="49" cy="446" r="5" fill="#f0443e"/>
    <text x="66" y="452" font-size="17">Product Maestro</text>
    <circle cx="49" cy="477" r="5" fill="#f0443e"/>
    <text x="66" y="483" font-size="17">Marketing Maestro</text>
    <circle cx="49" cy="508" r="5" fill="#f0443e"/>
    <text x="66" y="514" font-size="17">Software Architecture Maestro</text>
    <circle cx="49" cy="539" r="5" fill="#f0443e"/>
    <text x="66" y="545" font-size="17">API Design Skills</text>
    <circle cx="49" cy="570" r="5" fill="#f0443e"/>
    <text x="66" y="576" font-size="17">Database Engineering Skills</text>
    <circle cx="49" cy="601" r="5" fill="#f0443e"/>
    <text x="66" y="607" font-size="17">GitHub Skills</text>
    <circle cx="49" cy="632" r="5" fill="#f0443e"/>
    <text x="66" y="638" font-size="17">MCP Skills</text>
    <circle cx="49" cy="663" r="5" fill="#f0443e"/>
    <text x="66" y="669" font-size="17">Airtable Skills</text>
    <circle cx="49" cy="694" r="5" fill="#f0443e"/>
    <text x="66" y="700" font-size="17">ClickUp Skills</text>
    <circle cx="49" cy="725" r="5" fill="#f0443e"/>
    <text x="66" y="731" font-size="17">n8n Skills</text>
</svg>
